<?xml version="1.0" encoding="UTF-8"?>
<!DOCTYPE svg PUBLIC "-//W3C//DTD SVG 1.1//EN" "http://www.w3.org/Graphics/SVG/1.1/DTD/svg11.dtd">
<svg xmlns="http://www.w3.org/2000/svg" version="1.1" width="500px" height="499px" style="shape-rendering:geometricPrecision; text-rendering:geometricPrecision; image-rendering:optimizeQuality; fill-rule:evenodd; clip-rule:evenodd" xmlns:xlink="http://www.w3.org/1999/xlink">
<g><path style="opacity:0.733" fill="#c76f4f" d="M 287.5,4.5 C 260.837,1.84709 234.17,1.84709 207.5,4.5C 234.167,-0.833333 260.833,-0.833333 287.5,4.5 Z"/></g>
<g><path style="opacity:1" fill="#e67149" d="M 287.5,4.5 C 290.353,5.87695 293.353,7.04362 296.5,8C 306.71,9.39474 316.71,11.7281 326.5,15C 328.667,16.5 330.5,18.3333 332,20.5C 333.754,18.75 335.921,18.0833 338.5,18.5C 365.435,28.6217 389.435,43.2883 410.5,62.5C 410.511,64.0174 411.177,65.1841 412.5,66C 417.393,70.4012 422.393,74.5678 427.5,78.5C 435.457,86.4257 442.457,95.0924 448.5,104.5C 448.178,106.958 447.178,109.125 445.5,111C 446.322,113.434 446.656,115.934 446.5,118.5C 447.5,118.5 448.5,118.5 449.5,118.5C 449.788,121.866 449.954,125.2 450,128.5C 449.333,127.167 448.667,127.167 448,128.5C 447.503,130.81 447.337,133.143 447.5,135.5C 445.692,135.509 444.025,135.009 442.5,134C 440.138,129.149 436.472,127.649 431.5,129.5C 431.772,133.664 434.106,135.497 438.5,135C 441.622,139.825 440.622,141.158 435.5,139C 433.558,136.782 431.225,135.115 428.5,134C 429.367,131.684 428.701,129.684 426.5,128C 425.101,127.405 423.768,127.572 422.5,128.5C 421.639,125.473 420.139,122.806 418,120.5C 415.619,121.435 413.119,121.768 410.5,121.5C 400.91,114.874 391.91,107.541 383.5,99.5C 382.466,97.447 380.966,95.7803 379,94.5C 379,93.1667 379,91.8333 379,90.5C 377.274,91.5762 375.441,91.7429 373.5,91C 371.483,88.1388 368.817,86.3054 365.5,85.5C 362.911,84.5806 360.911,82.914 359.5,80.5C 355.009,72.3771 348.676,70.3771 340.5,74.5C 338.883,75.038 337.216,75.3713 335.5,75.5C 328.485,75.7286 321.485,76.2286 314.5,77C 291.117,82.6114 267.45,86.6114 243.5,89C 236.575,90.5392 229.909,92.3726 223.5,94.5C 223.5,94.8333 223.5,95.1667 223.5,95.5C 222.833,95.5 222.167,95.5 221.5,95.5C 217.21,95.1977 213.21,95.8643 209.5,97.5C 202.08,98.5722 194.746,99.9056 187.5,101.5C 177.889,102.323 168.555,103.989 159.5,106.5C 146.383,108.263 133.383,110.429 120.5,113C 88.911,138.947 57.5777,165.114 26.5,191.5C 24.9731,191.427 23.9731,192.094 23.5,193.5C 22.1154,194.574 20.9487,195.907 20,197.5C 18.5684,194.998 18.4018,192.498 19.5,190C 15.835,186.009 13.5017,181.342 12.5,176C 14.0037,170.572 16.6704,165.738 20.5,161.5C 18.2049,158.622 18.2049,155.622 20.5,152.5C 20.4573,151.584 20.1239,150.917 19.5,150.5C 29.0956,128.944 41.4289,109.278 56.5,91.5C 60.9116,87.9246 64.7449,83.9246 68,79.5C 75.3952,71.9368 82.8952,64.6035 90.5,57.5C 124.284,28.7822 163.284,11.1155 207.5,4.5C 234.17,1.84709 260.837,1.84709 287.5,4.5 Z"/></g>
<g><path style="opacity:1" fill="#d27354" d="M 287.5,4.5 C 305.269,6.76215 322.269,11.4288 338.5,18.5C 335.921,18.0833 333.754,18.75 332,20.5C 330.5,18.3333 328.667,16.5 326.5,15C 316.71,11.7281 306.71,9.39474 296.5,8C 293.353,7.04362 290.353,5.87695 287.5,4.5 Z"/></g>
<g><path style="opacity:1" fill="#ce785b" d="M 90.5,57.5 C 82.8952,64.6035 75.3952,71.9368 68,79.5C 64.7449,83.9246 60.9116,87.9246 56.5,91.5C 66.1667,78.5 77.5,67.1667 90.5,57.5 Z"/></g>
<g><path style="opacity:1" fill="#c87a5e" d="M 410.5,62.5 C 416.797,67.1289 422.463,72.4623 427.5,78.5C 422.393,74.5678 417.393,70.4012 412.5,66C 411.177,65.1841 410.511,64.0174 410.5,62.5 Z"/></g>
<g><path style="opacity:1" fill="#bf6b4c" d="M 359.5,80.5 C 356.564,78.9021 353.897,76.9021 351.5,74.5C 347.845,73.4138 344.178,73.4138 340.5,74.5C 348.676,70.3771 355.009,72.3771 359.5,80.5 Z"/></g>
<g><path style="opacity:1" fill="#070101" d="M 359.5,80.5 C 360.911,82.914 362.911,84.5806 365.5,85.5C 371.129,90.6475 377.129,95.3141 383.5,99.5C 391.91,107.541 400.91,114.874 410.5,121.5C 430.168,137.826 450.168,153.826 470.5,169.5C 471.5,216.495 471.833,263.495 471.5,310.5C 469.447,310.402 467.78,311.069 466.5,312.5C 459.73,314.414 453.397,317.081 447.5,320.5C 432.254,326.233 417.588,332.9 403.5,340.5C 393.409,343.72 383.742,347.72 374.5,352.5C 365.841,355.602 357.507,359.268 349.5,363.5C 333.895,369.638 318.562,376.305 303.5,383.5C 284.89,391.137 266.557,399.137 248.5,407.5C 237.995,411.415 227.662,415.915 217.5,421C 216.5,421.667 215.5,421.667 214.5,421C 153.248,384.889 91.9143,349.056 30.5,313.5C 29.2965,311.366 27.4632,310.032 25,309.5C 24.3333,271.5 24.3333,233.5 25,195.5C 25.4101,194.099 25.9101,192.766 26.5,191.5C 57.5777,165.114 88.911,138.947 120.5,113C 133.383,110.429 146.383,108.263 159.5,106.5C 169.282,106.617 178.615,104.951 187.5,101.5C 194.746,99.9056 202.08,98.5722 209.5,97.5C 213.733,97.4613 217.733,96.7947 221.5,95.5C 222.167,95.5 222.833,95.5 223.5,95.5C 234.742,95.6784 245.408,93.6784 255.5,89.5C 282.315,85.2537 308.982,80.587 335.5,75.5C 337.216,75.3713 338.883,75.038 340.5,74.5C 344.178,73.4138 347.845,73.4138 351.5,74.5C 353.897,76.9021 356.564,78.9021 359.5,80.5 Z"/></g>
<g><path style="opacity:1" fill="#c16948" d="M 335.5,75.5 C 308.982,80.587 282.315,85.2537 255.5,89.5C 244.853,91.1618 234.186,92.8285 223.5,94.5C 229.909,92.3726 236.575,90.5392 243.5,89C 267.45,86.6114 291.117,82.6114 314.5,77C 321.485,76.2286 328.485,75.7286 335.5,75.5 Z"/></g>
<g><path style="opacity:1" fill="#bf6546" d="M 365.5,85.5 C 368.817,86.3054 371.483,88.1388 373.5,91C 375.441,91.7429 377.274,91.5762 379,90.5C 379,91.8333 379,93.1667 379,94.5C 380.966,95.7803 382.466,97.447 383.5,99.5C 377.129,95.3141 371.129,90.6475 365.5,85.5 Z"/></g>
<g><path style="opacity:1" fill="#2e140e" d="M 255.5,89.5 C 245.408,93.6784 234.742,95.6784 223.5,95.5C 223.5,95.1667 223.5,94.8333 223.5,94.5C 234.186,92.8285 244.853,91.1618 255.5,89.5 Z"/></g>
<g><path style="opacity:1" fill="#713722" d="M 221.5,95.5 C 217.733,96.7947 213.733,97.4613 209.5,97.5C 213.21,95.8643 217.21,95.1977 221.5,95.5 Z"/></g>
<g><path style="opacity:1" fill="#57261f" d="M 317.5,94.5 C 319.288,93.3775 321.288,93.2109 323.5,94C 322.897,96.0714 321.564,97.2381 319.5,97.5C 322.307,94.9557 321.64,93.9557 317.5,94.5 Z"/></g>
<g><path style="opacity:1" fill="#83412c" d="M 315.5,94.5 C 313.123,95.8873 310.457,96.7206 307.5,97C 299.218,98.6238 290.885,99.7905 282.5,100.5C 293.274,97.956 304.274,95.956 315.5,94.5 Z"/></g>
<g><path style="opacity:1" fill="#773a26" d="M 271.5,102.5 C 266.37,103.913 261.037,104.913 255.5,105.5C 255.918,104.778 256.584,104.278 257.5,104C 262.137,103.171 266.804,102.671 271.5,102.5 Z"/></g>
<g><path style="opacity:1" fill="#a45b3f" d="M 352.5,95.5 C 350.545,94.6765 348.545,94.5099 346.5,95C 341.274,99.7337 335.941,104.234 330.5,108.5C 335.33,102.837 340.663,97.6704 346.5,93C 349.294,92.0276 351.294,92.8609 352.5,95.5 Z"/></g>
<g><path style="opacity:1" fill="#291009" d="M 187.5,101.5 C 178.615,104.951 169.282,106.617 159.5,106.5C 168.555,103.989 177.889,102.323 187.5,101.5 Z"/></g>
<g><path style="opacity:1" fill="#e67149" d="M 352.5,95.5 C 377.768,114.437 402.434,134.103 426.5,154.5C 428.986,157.818 431.986,160.651 435.5,163C 435.335,164.117 435.002,165.284 434.5,166.5C 435.025,167.192 435.692,167.692 436.5,168C 423.61,169.826 410.61,170.993 397.5,171.5C 394.5,171.167 391.5,170.833 388.5,170.5C 389.025,169.808 389.692,169.308 390.5,169C 382.587,167.408 381.92,168.908 388.5,173.5C 376.231,175.686 363.898,177.352 351.5,178.5C 342.488,177.374 333.488,177.374 324.5,178.5C 322.626,178.61 321.126,177.944 320,176.5C 319.721,179.757 321.054,180.757 324,179.5C 324.483,180.448 324.649,181.448 324.5,182.5C 314.55,183.821 304.55,184.654 294.5,185C 293.058,185.377 292.058,186.21 291.5,187.5C 290.167,187.5 288.833,187.5 287.5,187.5C 279.778,187.76 272.111,188.427 264.5,189.5C 261.09,187.032 257.756,187.032 254.5,189.5C 253.167,188.833 252.167,187.833 251.5,186.5C 252.473,184.36 253.973,182.693 256,181.5C 256.483,180.552 256.649,179.552 256.5,178.5C 262.067,174.606 267.067,169.939 271.5,164.5C 271.5,164.167 271.5,163.833 271.5,163.5C 272.873,163.657 274.207,163.49 275.5,163C 280.375,156.458 286.208,150.958 293,146.5C 293.366,144.548 294.199,142.882 295.5,141.5C 295.833,140.5 296.5,139.833 297.5,139.5C 300.333,137.522 303.333,135.689 306.5,134C 311.337,128.33 316.337,122.83 321.5,117.5C 324.091,114.242 327.091,111.242 330.5,108.5C 335.941,104.234 341.274,99.7337 346.5,95C 348.545,94.5099 350.545,94.6765 352.5,95.5 Z"/></g>
<g><path style="opacity:1" fill="#e57149" d="M 315.5,94.5 C 316.167,94.5 316.833,94.5 317.5,94.5C 321.64,93.9557 322.307,94.9557 319.5,97.5C 288.494,127.172 257.161,156.505 225.5,185.5C 223.302,186.014 221.302,187.014 219.5,188.5C 218.136,191.017 216.136,192.851 213.5,194C 202.839,194.5 192.172,194.667 181.5,194.5C 174.167,194.5 166.833,194.5 159.5,194.5C 154.167,194.5 148.833,194.5 143.5,194.5C 120.717,192.08 97.7169,191.08 74.5,191.5C 73.5,191.5 72.5,191.5 71.5,191.5C 71.0825,190.778 70.4158,190.278 69.5,190C 53.3286,191.088 52.3286,188.088 66.5,181C 70.5855,176.983 74.5855,172.983 78.5,169C 80.3668,168.289 81.8668,168.789 83,170.5C 83.9025,169.299 85.0692,168.465 86.5,168C 85.6919,167.692 85.0253,167.192 84.5,166.5C 85.1744,164.805 85.8411,163.138 86.5,161.5C 90.1274,159.206 93.4607,156.54 96.5,153.5C 105.719,144.547 115.386,136.047 125.5,128C 127.677,126.798 130.011,126.298 132.5,126.5C 139.036,125.949 145.369,124.949 151.5,123.5C 151.833,123.5 152.167,123.5 152.5,123.5C 154.857,123.663 157.19,123.497 159.5,123C 163.059,122.148 166.393,120.981 169.5,119.5C 171.5,119.5 173.5,119.5 175.5,119.5C 181.037,118.913 186.37,117.913 191.5,116.5C 196.606,114.956 201.939,113.956 207.5,113.5C 219.108,112.376 230.442,110.376 241.5,107.5C 246.012,106.019 250.678,105.352 255.5,105.5C 261.037,104.913 266.37,103.913 271.5,102.5C 274.946,101.313 278.613,100.646 282.5,100.5C 290.885,99.7905 299.218,98.6238 307.5,97C 310.457,96.7206 313.123,95.8873 315.5,94.5 Z"/></g>
<g><path style="opacity:1" fill="#924f39" d="M 241.5,107.5 C 230.442,110.376 219.108,112.376 207.5,113.5C 218.558,110.656 229.891,108.656 241.5,107.5 Z"/></g>
<g><path style="opacity:1" fill="#98513d" d="M 191.5,116.5 C 186.37,117.913 181.037,118.913 175.5,119.5C 180.451,117.227 185.784,116.227 191.5,116.5 Z"/></g>
<g><path style="opacity:1" fill="#9a4f3b" d="M 169.5,119.5 C 166.393,120.981 163.059,122.148 159.5,123C 157.19,123.497 154.857,123.663 152.5,123.5C 157.827,121.216 163.493,119.882 169.5,119.5 Z"/></g>
<g><path style="opacity:1" fill="#87422e" d="M 151.5,123.5 C 145.369,124.949 139.036,125.949 132.5,126.5C 138.543,124.492 144.876,123.492 151.5,123.5 Z"/></g>
<g><path style="opacity:1" fill="#b76246" d="M 321.5,117.5 C 316.337,122.83 311.337,128.33 306.5,134C 303.333,135.689 300.333,137.522 297.5,139.5C 305.194,131.804 313.194,124.471 321.5,117.5 Z"/></g>
<g><path style="opacity:1" fill="#b16247" d="M 295.5,141.5 C 294.199,142.882 293.366,144.548 293,146.5C 286.208,150.958 280.375,156.458 275.5,163C 274.207,163.49 272.873,163.657 271.5,163.5C 279.246,155.748 287.246,148.415 295.5,141.5 Z"/></g>
<g><path style="opacity:0.971" fill="#c67b62" d="M 491.5,208.5 C 492.851,213.949 493.685,219.616 494,225.5C 494.828,241.006 494.661,256.339 493.5,271.5C 493.878,250.458 493.211,229.458 491.5,208.5 Z"/></g>
<g><path style="opacity:0.541" fill="#c97a5f" d="M 1.5,222.5 C 1.3334,238.837 1.50007,255.17 2,271.5C 2.94568,280.791 4.44568,289.958 6.5,299C 6.49152,300.707 6.15818,302.207 5.5,303.5C 0.543208,276.554 -0.790126,249.554 1.5,222.5 Z"/></g>
<g><path style="opacity:1" fill="#e57149" d="M 448.5,104.5 C 471.385,135.452 485.718,170.118 491.5,208.5C 493.211,229.458 493.878,250.458 493.5,271.5C 484.475,351.628 446.475,413.795 379.5,458C 305.029,501.732 227.695,507.398 147.5,475C 73.3549,440.023 26.0216,382.856 5.5,303.5C 6.15818,302.207 6.49152,300.707 6.5,299C 4.44568,289.958 2.94568,280.791 2,271.5C 1.50007,255.17 1.3334,238.837 1.5,222.5C 3.7402,197.539 9.7402,173.539 19.5,150.5C 20.1239,150.917 20.4573,151.584 20.5,152.5C 18.2049,155.622 18.2049,158.622 20.5,161.5C 16.6704,165.738 14.0037,170.572 12.5,176C 13.5017,181.342 15.835,186.009 19.5,190C 18.4018,192.498 18.5684,194.998 20,197.5C 20.9487,195.907 22.1154,194.574 23.5,193.5C 23.3333,232.501 23.5,271.501 24,310.5C 26.2508,311.412 28.4175,312.412 30.5,313.5C 91.9143,349.056 153.248,384.889 214.5,421C 215.5,421.667 216.5,421.667 217.5,421C 227.662,415.915 237.995,411.415 248.5,407.5C 251.74,407.232 254.906,406.566 258,405.5C 258.873,405.735 259.707,406.069 260.5,406.5C 266.019,400.074 273.019,396.908 281.5,397C 282.416,397.374 283.25,397.874 284,398.5C 282.766,395.315 283.932,393.315 287.5,392.5C 288.874,393.711 290.374,394.711 292,395.5C 292.5,395.167 293,394.833 293.5,394.5C 291.995,393.158 291.328,391.492 291.5,389.5C 296.157,388.505 300.157,386.505 303.5,383.5C 318.562,376.305 333.895,369.638 349.5,363.5C 352.522,363.196 355.522,362.696 358.5,362C 362.481,359.513 366.814,357.847 371.5,357C 373.117,355.908 374.117,354.408 374.5,352.5C 383.742,347.72 393.409,343.72 403.5,340.5C 407.125,339.001 410.792,338.667 414.5,339.5C 415.711,338.726 415.711,337.893 414.5,337C 416.81,336.503 419.143,336.337 421.5,336.5C 421.281,335.325 421.614,334.325 422.5,333.5C 427.745,330.605 433.412,329.105 439.5,329C 440.126,328.25 440.626,327.416 441,326.5C 441.333,326.833 441.667,327.167 442,327.5C 442.483,326.552 442.649,325.552 442.5,324.5C 445.518,324.296 448.518,323.963 451.5,323.5C 451.5,322.5 451.5,321.5 451.5,320.5C 454.866,318.309 458.533,316.809 462.5,316C 464.093,315.051 465.426,313.885 466.5,312.5C 467.78,311.069 469.447,310.402 471.5,310.5C 471.833,263.495 471.5,216.495 470.5,169.5C 450.168,153.826 430.168,137.826 410.5,121.5C 413.119,121.768 415.619,121.435 418,120.5C 420.139,122.806 421.639,125.473 422.5,128.5C 423.768,127.572 425.101,127.405 426.5,128C 428.701,129.684 429.367,131.684 428.5,134C 431.225,135.115 433.558,136.782 435.5,139C 440.622,141.158 441.622,139.825 438.5,135C 434.106,135.497 431.772,133.664 431.5,129.5C 436.472,127.649 440.138,129.149 442.5,134C 444.025,135.009 445.692,135.509 447.5,135.5C 447.337,133.143 447.503,130.81 448,128.5C 448.667,127.167 449.333,127.167 450,128.5C 449.954,125.2 449.788,121.866 449.5,118.5C 448.5,118.5 447.5,118.5 446.5,118.5C 446.656,115.934 446.322,113.434 445.5,111C 447.178,109.125 448.178,106.958 448.5,104.5 Z"/></g>
<g><path style="opacity:1" fill="#9b4f39" d="M 57.5,311.5 C 61.7936,311.977 65.1269,313.977 67.5,317.5C 63.827,316 60.4937,314 57.5,311.5 Z"/></g>
<g><path style="opacity:1" fill="#d06f4c" d="M 299.5,290.5 C 331.174,295.636 362.841,300.636 394.5,305.5C 394.5,312.833 394.5,320.167 394.5,327.5C 390.736,328.548 387.069,329.881 383.5,331.5C 384.588,330 385.921,328.667 387.5,327.5C 389.045,326.548 390.712,326.215 392.5,326.5C 392.5,319.833 392.5,313.167 392.5,306.5C 365.077,301.777 337.41,298.277 309.5,296C 308.007,294.632 306.507,294.465 305,295.5C 304.544,294.256 305.044,293.423 306.5,293C 302.83,292.452 299.163,291.952 295.5,291.5C 295.167,317.175 295.5,342.842 296.5,368.5C 297.478,368.023 298.311,367.357 299,366.5C 299.085,364.915 299.251,363.582 299.5,362.5C 300.446,362.987 301.446,363.32 302.5,363.5C 307.167,361.564 312.5,360.231 318.5,359.5C 311.473,363.344 304.14,366.677 296.5,369.5C 294.509,343.521 293.842,317.188 294.5,290.5C 296.167,290.5 297.833,290.5 299.5,290.5 Z"/></g>
<g><path style="opacity:1" fill="#9a5138" d="M 299.5,290.5 C 297.833,290.5 296.167,290.5 294.5,290.5C 293.842,317.188 294.509,343.521 296.5,369.5C 295.791,370.404 294.791,370.737 293.5,370.5C 293.5,343.5 293.5,316.5 293.5,289.5C 295.735,289.205 297.735,289.539 299.5,290.5 Z"/></g>
<g><path style="opacity:1" fill="#e67149" d="M 383.5,331.5 C 362.062,341.207 340.396,350.54 318.5,359.5C 312.5,360.231 307.167,361.564 302.5,363.5C 301.446,363.32 300.446,362.987 299.5,362.5C 299.251,363.582 299.085,364.915 299,366.5C 298.311,367.357 297.478,368.023 296.5,368.5C 295.5,342.842 295.167,317.175 295.5,291.5C 299.163,291.952 302.83,292.452 306.5,293C 305.044,293.423 304.544,294.256 305,295.5C 306.507,294.465 308.007,294.632 309.5,296C 337.41,298.277 365.077,301.777 392.5,306.5C 392.5,313.167 392.5,319.833 392.5,326.5C 390.712,326.215 389.045,326.548 387.5,327.5C 385.921,328.667 384.588,330 383.5,331.5 Z"/></g>
<g><path style="opacity:1" fill="#a65b41" d="M 353.5,283.5 C 365.09,283.724 376.424,285.39 387.5,288.5C 387.5,288.833 387.5,289.167 387.5,289.5C 376.083,287.23 364.749,285.23 353.5,283.5 Z"/></g>
<g><path style="opacity:1" fill="#894830" d="M 329.5,279.5 C 336.227,279.787 342.893,280.621 349.5,282C 350.416,282.278 351.082,282.778 351.5,283.5C 343.963,282.618 336.63,281.285 329.5,279.5 Z"/></g>
<g><path style="opacity:1" fill="#72321f" d="M 319.5,277.5 C 322.428,277.565 325.095,278.232 327.5,279.5C 324.505,279.706 321.838,279.04 319.5,277.5 Z"/></g>
<g><path style="opacity:1" fill="#7e3c2b" d="M 297.5,274.5 C 304.422,274.656 311.089,275.656 317.5,277.5C 310.578,277.344 303.911,276.344 297.5,274.5 Z"/></g>
<g><path style="opacity:1" fill="#bd684b" d="M 132.5,209.5 C 158.006,210.098 183.339,211.098 208.5,212.5C 209.163,274.842 208.496,336.842 206.5,398.5C 204.326,398.25 202.659,397.25 201.5,395.5C 203.435,396.15 205.435,396.483 207.5,396.5C 207.5,335.167 207.5,273.833 207.5,212.5C 201.833,212.5 196.167,212.5 190.5,212.5C 178.586,212.179 166.753,212.512 155,213.5C 154.25,212.874 153.416,212.374 152.5,212C 145.692,211.117 139.025,210.283 132.5,209.5 Z"/></g>
<g><path style="opacity:1" fill="#501908" d="M 224.5,211.5 C 223.837,274.842 224.504,337.842 226.5,400.5C 225.791,401.404 224.791,401.737 223.5,401.5C 223.168,337.998 223.501,274.664 224.5,211.5 Z"/></g>
<g><path style="opacity:1" fill="#dc734f" d="M 190.5,212.5 C 196.167,212.5 201.833,212.5 207.5,212.5C 207.5,273.833 207.5,335.167 207.5,396.5C 205.435,396.483 203.435,396.15 201.5,395.5C 197.827,394 194.494,392 191.5,389.5C 194.417,390.291 197.25,390.291 200,389.5C 202.172,390.509 203.338,392.176 203.5,394.5C 204.5,394.5 205.5,394.5 206.5,394.5C 206.5,334.5 206.5,274.5 206.5,214.5C 200.979,214.218 195.646,213.551 190.5,212.5 Z"/></g>
<g><path style="opacity:1" fill="#a75539" d="M 247.5,312.5 C 246.502,278.337 246.168,244.004 246.5,209.5C 244.194,209.993 241.861,210.326 239.5,210.5C 238.167,210.5 236.833,210.5 235.5,210.5C 239.267,209.205 243.267,208.539 247.5,208.5C 247.5,243.167 247.5,277.833 247.5,312.5 Z"/></g>
<g><path style="opacity:1" fill="#cb755a" d="M 235.5,210.5 C 236.833,210.5 238.167,210.5 239.5,210.5C 235.058,211.294 230.558,212.294 226,213.5C 225.5,275.166 225.333,336.832 225.5,398.5C 227.5,398.167 229.5,397.833 231.5,397.5C 229.928,398.687 228.261,399.687 226.5,400.5C 224.504,337.842 223.837,274.842 224.5,211.5C 228.154,211.058 231.821,210.724 235.5,210.5 Z"/></g>
<g><path style="opacity:1" fill="#5e2814" d="M 208.5,212.5 C 209.499,274.664 209.832,336.998 209.5,399.5C 208.209,399.737 207.209,399.404 206.5,398.5C 208.496,336.842 209.163,274.842 208.5,212.5 Z"/></g>
<g><path style="opacity:1" fill="#985138" d="M 297.5,202.5 C 296.791,203.404 295.791,203.737 294.5,203.5C 294.5,226.833 294.5,250.167 294.5,273.5C 295.791,273.263 296.791,273.596 297.5,274.5C 296.167,274.5 294.833,274.5 293.5,274.5C 293.5,250.5 293.5,226.5 293.5,202.5C 294.833,202.5 296.167,202.5 297.5,202.5 Z"/></g>
<g><path style="opacity:1" fill="#cc6e50" d="M 274.5,205.5 C 275.833,205.5 277.167,205.5 278.5,205.5C 278.5,263.167 278.5,320.833 278.5,378.5C 274.285,379.238 270.285,380.572 266.5,382.5C 265.5,382.5 264.5,382.5 263.5,382.5C 263.5,366.833 263.5,351.167 263.5,335.5C 264.167,350.672 264.833,366.005 265.5,381.5C 269.271,379.98 272.938,378.314 276.5,376.5C 276.5,320.167 276.5,263.833 276.5,207.5C 272.466,207.505 268.466,207.838 264.5,208.5C 264.667,243.502 264.5,278.502 264,313.5C 261.254,314.143 258.421,314.476 255.5,314.5C 252.41,314.478 249.743,313.812 247.5,312.5C 252.5,312.5 257.5,312.5 262.5,312.5C 263.498,277.671 263.832,242.671 263.5,207.5C 267.36,207.192 271.026,206.525 274.5,205.5 Z"/></g>
<g><path style="opacity:1" fill="#e67149" d="M 263.5,335.5 C 257.833,335.5 252.167,335.5 246.5,335.5C 246.5,354.167 246.5,372.833 246.5,391.5C 241.617,393.774 236.617,395.774 231.5,397.5C 229.5,397.833 227.5,398.167 225.5,398.5C 225.333,336.832 225.5,275.166 226,213.5C 230.558,212.294 235.058,211.294 239.5,210.5C 241.861,210.326 244.194,209.993 246.5,209.5C 246.168,244.004 246.502,278.337 247.5,312.5C 249.743,313.812 252.41,314.478 255.5,314.5C 258.421,314.476 261.254,314.143 264,313.5C 264.5,278.502 264.667,243.502 264.5,208.5C 268.466,207.838 272.466,207.505 276.5,207.5C 276.5,263.833 276.5,320.167 276.5,376.5C 272.938,378.314 269.271,379.98 265.5,381.5C 264.833,366.005 264.167,350.672 263.5,335.5 Z"/></g>
<g><path style="opacity:1" fill="#7e4531" d="M 274.5,205.5 C 271.026,206.525 267.36,207.192 263.5,207.5C 263.832,242.671 263.498,277.671 262.5,312.5C 262.167,277.16 262.5,241.827 263.5,206.5C 267.094,205.574 270.76,205.241 274.5,205.5 Z"/></g>
<g><path style="opacity:1" fill="#e67149" d="M 41.5,206.5 C 54.1725,206.652 66.8392,206.985 79.5,207.5C 96.3143,208.901 113.314,209.568 130.5,209.5C 131.167,209.5 131.833,209.5 132.5,209.5C 139.025,210.283 145.692,211.117 152.5,212C 153.416,212.374 154.25,212.874 155,213.5C 166.753,212.512 178.586,212.179 190.5,212.5C 195.646,213.551 200.979,214.218 206.5,214.5C 206.5,274.5 206.5,334.5 206.5,394.5C 205.5,394.5 204.5,394.5 203.5,394.5C 203.338,392.176 202.172,390.509 200,389.5C 197.25,390.291 194.417,390.291 191.5,389.5C 185.661,386.415 179.994,383.082 174.5,379.5C 173.043,377.215 171.043,375.382 168.5,374C 169.938,373.781 171.271,373.281 172.5,372.5C 172.333,372.167 172.167,371.833 172,371.5C 168.943,372.451 165.777,372.784 162.5,372.5C 152.569,367.224 142.902,361.558 133.5,355.5C 133.5,353.833 133.5,352.167 133.5,350.5C 124.448,348.075 115.781,344.741 107.5,340.5C 104.669,339.921 102.336,338.588 100.5,336.5C 99.7974,334.284 98.4641,332.451 96.5,331C 92.7366,329.136 88.7366,327.969 84.5,327.5C 83.9717,326.279 83.305,325.113 82.5,324C 79.4955,323.487 77.1622,321.987 75.5,319.5C 72.9881,318.205 70.3214,317.539 67.5,317.5C 65.1269,313.977 61.7936,311.977 57.5,311.5C 55.5659,310.89 53.8993,309.89 52.5,308.5C 52.5858,307.504 52.2524,306.671 51.5,306C 52.7932,305.51 54.1266,305.343 55.5,305.5C 55.5,304.5 55.5,303.5 55.5,302.5C 53.3337,302.579 51.3337,303.246 49.5,304.5C 46.478,302.995 43.478,301.661 40.5,300.5C 40.1685,268.996 40.5018,237.662 41.5,206.5 Z"/></g>
<g><path style="opacity:1" fill="#ba6648" d="M 41.5,205.5 C 41.5,205.833 41.5,206.167 41.5,206.5C 40.5018,237.662 40.1685,268.996 40.5,300.5C 43.478,301.661 46.478,302.995 49.5,304.5C 51.3337,303.246 53.3337,302.579 55.5,302.5C 55.5,303.5 55.5,304.5 55.5,305.5C 54.1266,305.343 52.7932,305.51 51.5,306C 52.2524,306.671 52.5858,307.504 52.5,308.5C 47.6429,306.486 43.1429,303.819 39,300.5C 38.5,268.835 38.3334,237.168 38.5,205.5C 39.5,205.5 40.5,205.5 41.5,205.5 Z"/></g>
<g><path style="opacity:1" fill="#9f5338" d="M 79.5,207.5 C 84.8333,207.5 90.1667,207.5 95.5,207.5C 104.506,207.334 113.506,207.5 122.5,208C 125.365,208.183 128.031,208.683 130.5,209.5C 113.314,209.568 96.3143,208.901 79.5,207.5 Z"/></g>
<g><path style="opacity:1" fill="#82422d" d="M 41.5,206.5 C 41.5,206.167 41.5,205.833 41.5,205.5C 59.6837,205.459 77.6837,206.125 95.5,207.5C 90.1667,207.5 84.8333,207.5 79.5,207.5C 66.8392,206.985 54.1725,206.652 41.5,206.5 Z"/></g>
<g><path style="opacity:1" fill="#a9593f" d="M 321.5,199.5 C 313.944,202.214 305.944,203.214 297.5,202.5C 305.304,201.016 313.304,200.016 321.5,199.5 Z"/></g>
<g><path style="opacity:1" fill="#894d39" d="M 385.5,191.5 C 388.287,190.523 391.287,190.19 394.5,190.5C 394.832,223.671 394.498,256.671 393.5,289.5C 393.5,256.833 393.5,224.167 393.5,191.5C 390.833,191.5 388.167,191.5 385.5,191.5 Z"/></g>
<g><path style="opacity:1" fill="#d17250" d="M 385.5,191.5 C 388.167,191.5 390.833,191.5 393.5,191.5C 393.5,224.167 393.5,256.833 393.5,289.5C 391.5,289.5 389.5,289.5 387.5,289.5C 387.5,289.167 387.5,288.833 387.5,288.5C 389.167,288.5 390.833,288.5 392.5,288.5C 392.5,256.5 392.5,224.5 392.5,192.5C 375.655,195.426 358.655,197.092 341.5,197.5C 347.623,195.999 353.957,194.999 360.5,194.5C 365.75,194.698 370.75,194.031 375.5,192.5C 378.764,191.676 382.098,191.342 385.5,191.5 Z"/></g>
<g><path style="opacity:1" fill="#e67149" d="M 387.5,288.5 C 376.424,285.39 365.09,283.724 353.5,283.5C 352.833,283.5 352.167,283.5 351.5,283.5C 351.082,282.778 350.416,282.278 349.5,282C 342.893,280.621 336.227,279.787 329.5,279.5C 328.833,279.5 328.167,279.5 327.5,279.5C 325.095,278.232 322.428,277.565 319.5,277.5C 318.833,277.5 318.167,277.5 317.5,277.5C 311.089,275.656 304.422,274.656 297.5,274.5C 296.791,273.596 295.791,273.263 294.5,273.5C 294.5,250.167 294.5,226.833 294.5,203.5C 295.791,203.737 296.791,203.404 297.5,202.5C 305.944,203.214 313.944,202.214 321.5,199.5C 322.167,199.5 322.833,199.5 323.5,199.5C 328.414,199.638 333.081,198.972 337.5,197.5C 338.833,197.5 340.167,197.5 341.5,197.5C 358.655,197.092 375.655,195.426 392.5,192.5C 392.5,224.5 392.5,256.5 392.5,288.5C 390.833,288.5 389.167,288.5 387.5,288.5 Z"/></g>
<g><path style="opacity:1" fill="#8c4830" d="M 337.5,197.5 C 333.081,198.972 328.414,199.638 323.5,199.5C 327.9,197.896 332.566,197.229 337.5,197.5 Z"/></g>
<g><path style="opacity:1" fill="#220602" d="M 26.5,191.5 C 25.9101,192.766 25.4101,194.099 25,195.5C 24.3333,233.5 24.3333,271.5 25,309.5C 27.4632,310.032 29.2965,311.366 30.5,313.5C 28.4175,312.412 26.2508,311.412 24,310.5C 23.5,271.501 23.3333,232.501 23.5,193.5C 23.9731,192.094 24.9731,191.427 26.5,191.5 Z"/></g>
<g><path style="opacity:1" fill="#d17053" d="M 225.5,185.5 C 222.14,189.527 218.473,193.194 214.5,196.5C 203.327,196.161 192.327,195.494 181.5,194.5C 192.172,194.667 202.839,194.5 213.5,194C 216.136,192.851 218.136,191.017 219.5,188.5C 221.302,187.014 223.302,186.014 225.5,185.5 Z"/></g>
<g><path style="opacity:1" fill="#884730" d="M 159.5,194.5 C 166.833,194.5 174.167,194.5 181.5,194.5C 192.327,195.494 203.327,196.161 214.5,196.5C 212.19,197.164 209.69,197.497 207,197.5C 190.992,196.796 175.158,195.796 159.5,194.5 Z"/></g>
<g><path style="opacity:1" fill="#6f3421" d="M 375.5,192.5 C 370.75,194.031 365.75,194.698 360.5,194.5C 365.269,193.111 370.269,192.444 375.5,192.5 Z"/></g>
<g><path style="opacity:1" fill="#2b130d" d="M 242.5,191.5 C 242.389,192.117 242.056,192.617 241.5,193C 242.833,193.167 244.167,193.333 245.5,193.5C 251.458,192.396 257.458,191.729 263.5,191.5C 255.917,194.54 247.917,195.206 239.5,193.5C 240.005,192.081 241.005,191.415 242.5,191.5 Z"/></g>
<g><path style="opacity:1" fill="#7b3e2a" d="M 74.5,191.5 C 97.7169,191.08 120.717,192.08 143.5,194.5C 120.336,193.665 97.3357,192.665 74.5,191.5 Z"/></g>
<g><path style="opacity:1" fill="#b36245" d="M 447.5,184.5 C 450.287,183.523 453.287,183.19 456.5,183.5C 456.5,222.5 456.5,261.5 456.5,300.5C 454.079,300.878 451.746,301.545 449.5,302.5C 450.401,300.273 452.067,299.273 454.5,299.5C 454.5,261.167 454.5,222.833 454.5,184.5C 452.167,184.5 449.833,184.5 447.5,184.5 Z"/></g>
<g><path style="opacity:1" fill="#e77148" d="M 447.5,184.5 C 449.833,184.5 452.167,184.5 454.5,184.5C 454.5,222.833 454.5,261.167 454.5,299.5C 452.067,299.273 450.401,300.273 449.5,302.5C 449.167,302.5 448.833,302.5 448.5,302.5C 446.533,302.261 444.699,302.594 443,303.5C 442.5,264.168 442.333,224.835 442.5,185.5C 444.415,185.784 446.081,185.451 447.5,184.5 Z"/></g>
<g><path style="opacity:1" fill="#dc7553" d="M 441.5,184.5 C 443.5,184.5 445.5,184.5 447.5,184.5C 446.081,185.451 444.415,185.784 442.5,185.5C 442.333,224.835 442.5,264.168 443,303.5C 444.699,302.594 446.533,302.261 448.5,302.5C 447.035,303.737 445.368,304.737 443.5,305.5C 441.506,265.514 440.839,225.18 441.5,184.5 Z"/></g>
<g><path style="opacity:1" fill="#a15b45" d="M 441.5,184.5 C 440.839,225.18 441.506,265.514 443.5,305.5C 442.791,306.404 441.791,306.737 440.5,306.5C 440.168,265.663 440.501,224.997 441.5,184.5 Z"/></g>
<g><path style="opacity:1" fill="#914b32" d="M 423.5,314.5 C 424.494,272.239 424.827,229.906 424.5,187.5C 419.833,187.833 415.167,188.167 410.5,188.5C 410.167,188.5 409.833,188.5 409.5,188.5C 414.583,186.922 419.916,186.255 425.5,186.5C 426.161,229.513 425.495,272.18 423.5,314.5 Z"/></g>
<g><path style="opacity:1" fill="#a7593b" d="M 409.5,188.5 C 409.833,188.5 410.167,188.5 410.5,188.5C 409.839,232.18 410.505,275.513 412.5,318.5C 411.791,319.404 410.791,319.737 409.5,319.5C 409.5,275.833 409.5,232.167 409.5,188.5 Z"/></g>
<g><path style="opacity:1" fill="#e4724a" d="M 423.5,314.5 C 419.685,315.581 416.018,316.914 412.5,318.5C 410.505,275.513 409.839,232.18 410.5,188.5C 415.167,188.167 419.833,187.833 424.5,187.5C 424.827,229.906 424.494,272.239 423.5,314.5 Z"/></g>
<g><path style="opacity:1" fill="#d36d4c" d="M 271.5,164.5 C 267.067,169.939 262.067,174.606 256.5,178.5C 256.649,179.552 256.483,180.552 256,181.5C 253.973,182.693 252.473,184.36 251.5,186.5C 252.167,187.833 253.167,188.833 254.5,189.5C 257.756,187.032 261.09,187.032 264.5,189.5C 272.111,188.427 279.778,187.76 287.5,187.5C 279.612,188.754 271.612,190.087 263.5,191.5C 257.458,191.729 251.458,192.396 245.5,193.5C 244.167,193.333 242.833,193.167 241.5,193C 242.056,192.617 242.389,192.117 242.5,191.5C 251.545,181.815 261.211,172.815 271.5,164.5 Z"/></g>
<g><path style="opacity:1" fill="#d4704d" d="M 426.5,154.5 C 432.728,158.452 438.394,163.119 443.5,168.5C 439.353,169.167 435.353,169.834 431.5,170.5C 415.316,172.115 399.316,174.115 383.5,176.5C 352.777,179.84 322.111,183.507 291.5,187.5C 292.058,186.21 293.058,185.377 294.5,185C 304.55,184.654 314.55,183.821 324.5,182.5C 324.649,181.448 324.483,180.448 324,179.5C 321.054,180.757 319.721,179.757 320,176.5C 321.126,177.944 322.626,178.61 324.5,178.5C 333.488,177.374 342.488,177.374 351.5,178.5C 363.898,177.352 376.231,175.686 388.5,173.5C 381.92,168.908 382.587,167.408 390.5,169C 389.692,169.308 389.025,169.808 388.5,170.5C 391.5,170.833 394.5,171.167 397.5,171.5C 410.61,170.993 423.61,169.826 436.5,168C 435.692,167.692 435.025,167.192 434.5,166.5C 435.002,165.284 435.335,164.117 435.5,163C 431.986,160.651 428.986,157.818 426.5,154.5 Z"/></g>
<g><path style="opacity:1" fill="#b96345" d="M 86.5,161.5 C 85.8411,163.138 85.1744,164.805 84.5,166.5C 85.0253,167.192 85.6919,167.692 86.5,168C 85.0692,168.465 83.9025,169.299 83,170.5C 81.8668,168.789 80.3668,168.289 78.5,169C 74.5855,172.983 70.5855,176.983 66.5,181C 52.3286,188.088 53.3286,191.088 69.5,190C 70.4158,190.278 71.0825,190.778 71.5,191.5C 64.7431,191.877 58.0764,191.377 51.5,190C 63.1577,180.231 74.8244,170.731 86.5,161.5 Z"/></g>
<g><path style="opacity:1" fill="#260f07" d="M 431.5,170.5 C 431.082,171.222 430.416,171.722 429.5,172C 420.29,173.486 410.957,174.82 401.5,176C 395.509,176.499 389.509,176.666 383.5,176.5C 399.316,174.115 415.316,172.115 431.5,170.5 Z"/></g>
<g><path style="opacity:1" fill="#9d543d" d="M 96.5,153.5 C 93.4607,156.54 90.1274,159.206 86.5,161.5C 88.9626,157.7 92.296,155.033 96.5,153.5 Z"/></g>
<g><path style="opacity:1" fill="#af5f44" d="M 466.5,312.5 C 465.426,313.885 464.093,315.051 462.5,316C 458.533,316.809 454.866,318.309 451.5,320.5C 450.167,320.5 448.833,320.5 447.5,320.5C 453.397,317.081 459.73,314.414 466.5,312.5 Z"/></g>
<g><path style="opacity:1" fill="#ab593f" d="M 67.5,317.5 C 70.3214,317.539 72.9881,318.205 75.5,319.5C 77.1622,321.987 79.4955,323.487 82.5,324C 83.305,325.113 83.9717,326.279 84.5,327.5C 78.6608,324.415 72.9942,321.082 67.5,317.5 Z"/></g>
<g><path style="opacity:1" fill="#b86444" d="M 84.5,327.5 C 88.7366,327.969 92.7366,329.136 96.5,331C 98.4641,332.451 99.7974,334.284 100.5,336.5C 94.8029,333.989 89.4696,330.989 84.5,327.5 Z"/></g>
<g><path style="opacity:1" fill="#cf6c4b" d="M 447.5,320.5 C 448.833,320.5 450.167,320.5 451.5,320.5C 451.5,321.5 451.5,322.5 451.5,323.5C 448.518,323.963 445.518,324.296 442.5,324.5C 442.649,325.552 442.483,326.552 442,327.5C 441.667,327.167 441.333,326.833 441,326.5C 440.626,327.416 440.126,328.25 439.5,329C 433.412,329.105 427.745,330.605 422.5,333.5C 421.614,334.325 421.281,335.325 421.5,336.5C 419.143,336.337 416.81,336.503 414.5,337C 415.711,337.893 415.711,338.726 414.5,339.5C 410.792,338.667 407.125,339.001 403.5,340.5C 417.588,332.9 432.254,326.233 447.5,320.5 Z"/></g>
<g><path style="opacity:1" fill="#8a4a35" d="M 263.5,335.5 C 263.5,351.167 263.5,366.833 263.5,382.5C 264.5,382.5 265.5,382.5 266.5,382.5C 265.713,384.104 264.38,384.771 262.5,384.5C 262.5,368.5 262.5,352.5 262.5,336.5C 257.5,336.5 252.5,336.5 247.5,336.5C 247.5,354.833 247.5,373.167 247.5,391.5C 247.167,391.5 246.833,391.5 246.5,391.5C 246.5,372.833 246.5,354.167 246.5,335.5C 252.167,335.5 257.833,335.5 263.5,335.5 Z"/></g>
<g><path style="opacity:1" fill="#1a0400" d="M 262.5,384.5 C 261.669,370.006 261.169,355.339 261,340.5C 256.784,339.196 252.617,338.863 248.5,339.5C 248.83,357.008 248.497,374.341 247.5,391.5C 247.5,373.167 247.5,354.833 247.5,336.5C 252.5,336.5 257.5,336.5 262.5,336.5C 262.5,352.5 262.5,368.5 262.5,384.5 Z"/></g>
<g><path style="opacity:1" fill="#cb6947" d="M 107.5,340.5 C 115.781,344.741 124.448,348.075 133.5,350.5C 133.5,352.167 133.5,353.833 133.5,355.5C 124.291,351.259 115.625,346.259 107.5,340.5 Z"/></g>
<g><path style="opacity:1" fill="#0b0202" d="M 137.5,393.5 C 138.8,394.827 140.133,396.16 141.5,397.5C 138.713,400.741 136.713,404.407 135.5,408.5C 134.749,409.573 133.749,409.74 132.5,409C 106.961,393.883 81.2939,379.049 55.5,364.5C 54.5853,363.672 53.9186,362.672 53.5,361.5C 55.246,357.673 57.246,354.007 59.5,350.5C 60.365,349.417 61.365,349.251 62.5,350C 86.9001,365.533 111.9,380.033 137.5,393.5 Z"/></g>
<g><path style="opacity:1" fill="#c06548" d="M 374.5,352.5 C 374.117,354.408 373.117,355.908 371.5,357C 366.814,357.847 362.481,359.513 358.5,362C 355.522,362.696 352.522,363.196 349.5,363.5C 357.507,359.268 365.841,355.602 374.5,352.5 Z"/></g>
<g><path style="opacity:1" fill="#bd6245" d="M 174.5,379.5 C 169.976,377.957 165.976,375.623 162.5,372.5C 165.777,372.784 168.943,372.451 172,371.5C 172.167,371.833 172.333,372.167 172.5,372.5C 171.271,373.281 169.938,373.781 168.5,374C 171.043,375.382 173.043,377.215 174.5,379.5 Z"/></g>
<g><path style="opacity:1" fill="#c96948" d="M 303.5,383.5 C 300.157,386.505 296.157,388.505 291.5,389.5C 291.328,391.492 291.995,393.158 293.5,394.5C 293,394.833 292.5,395.167 292,395.5C 290.374,394.711 288.874,393.711 287.5,392.5C 283.932,393.315 282.766,395.315 284,398.5C 283.25,397.874 282.416,397.374 281.5,397C 273.019,396.908 266.019,400.074 260.5,406.5C 259.707,406.069 258.873,405.735 258,405.5C 254.906,406.566 251.74,407.232 248.5,407.5C 266.557,399.137 284.89,391.137 303.5,383.5 Z"/></g>
<g><path style="opacity:1" fill="#bb624a" d="M 137.5,393.5 C 141.29,392.953 143.29,394.62 143.5,398.5C 141.289,402.289 138.622,405.622 135.5,408.5C 136.713,404.407 138.713,400.741 141.5,397.5C 140.133,396.16 138.8,394.827 137.5,393.5 Z"/></g>
<g><path style="opacity:1" fill="#100301" d="M 151.5,403.5 C 156.093,404.797 160.093,407.13 163.5,410.5C 160.99,414.315 158.99,418.315 157.5,422.5C 152.907,421.203 148.907,418.87 145.5,415.5C 148.059,411.714 150.059,407.714 151.5,403.5 Z"/></g>
</svg>
